PathFileType	4	(X/Y/Z)	C:/Users/beibeiliu/ov580/test_trc/User3\sequence.14_training_dense_left.trc
DataRate	CameraRate	NumFrames	NumMarkers	Units	OrigDataRate	OrigDataStartFrame	OrigNumFrames
120	120	21	19	mm	120	1	84
Frame#	Time	ThumbCMC			ThumbMCP			ThumbIP			ThumbTip			IndexMCP			IndexPIP			IndexTip			MiddleMCP			MiddlePIP			MiddleTip			RingMCP			RingPIP			RingTip			PinkyMCP			PinkyPIP			PinkyTip			BackHand1			BackHand2			BackHand3	
		X0	Y0	Z0	X1	Y1	Z1	X2	Y2	Z2	X3	Y3	Z3	X4	Y4	Z4	X5	Y5	Z5	X6	Y6	Z6	X7	Y7	Z7	X8	Y8	Z8	X9	Y9	Z9	X10	Y10	Z10	X11	Y11	Z11	X12	Y12	Z12	X13	Y13	Z13	X14	Y14	Z14	X15	Y15	Z15	X16	Y16	Z16	X17	Y17	Z17	X18	Y18	Z18	
0	0	-62.511	2.90327	33.9911	-45.0808	-5.84949	11.674	-27.4274	-12.4396	-12.9125	-19.7811	-21.813	-36.6139	-85.8476	16.2699	-41.4833	-78.1176	14.3466	-67.6852	-73.4017	7.83962	-98.0155	-111.32	16.172	-46.8732	-113.727	12.4665	-76.1131	-115.703	-0.923209	-106.298	-130.032	8.24709	-39.8916	-135.933	4.9116	-61.9075	-141.672	-7.61874	-87.0128	-150.861	-3.54434	-21.929	-157.356	-9.1055	-39.7994	-160.842	-18.3428	-63.7767	-126.601	20.0691	10.913	-125.78	20.399	45.8845	-94.3984	24.4413	24.0056	
1	0.00833333	-63.8299	2.12448	31.3085	-44.0953	-5.35633	10.0484	-32.2986	-13.5847	-13.7261	-20.0421	-23.1135	-35.9723	-86.3716	16.3488	-43.4267	-79.8092	14.2608	-72.3446	-75.6916	6.87302	-99.1321	-110.944	16.3093	-49.6625	-112.604	12.974	-74.0182	-116.006	-1.3866	-106.425	-134.424	8.18144	-37.2871	-135.343	4.31113	-62.3141	-142.199	-9.47272	-91.6929	-147.789	-3.53749	-18.3221	-159.023	-10.1369	-44.3549	-164.688	-17.5392	-62.233	-128.216	18.6379	14.7391	-124.829	21.7952	42.9728	-93.4265	23.7078	21.8535	
2	0.0166667	-63.4065	1.24976	33.0145	-45.5781	-6.3914	12.4866	-27.935	-14.6081	-16.4492	-21.1997	-23.4061	-31.7047	-80.6527	15.8693	-46.9168	-79.5365	13.4654	-70.1368	-71.4207	8.05507	-95.0359	-112.461	15.9708	-46.2715	-112.359	11.7444	-75.1323	-112.109	-0.530551	-105.344	-128.49	8.16384	-36.1673	-135.534	2.04643	-66.4178	-142.157	-10.0417	-90.3974	-149.08	-2.88138	-19.366	-158.342	-10.2163	-42.0476	-161.999	-19.5496	-61.9874	-128.466	19.0336	14.1588	-123.563	20.0071	42.4847	-94.1903	23.0347	24.6769	
3	0.025	-59.8555	1.97223	28.4721	-45.4386	-6.93106	9.51951	-29.3355	-15.2426	-14.5387	-19.607	-24.1769	-30.0855	-82.8096	15.1346	-46.3453	-74.4447	13.3424	-73.1786	-76.0547	7.34061	-94.0414	-109.288	15.2904	-45.2356	-111.993	10.5635	-77.1032	-113.813	-1.53732	-105.617	-127.856	7.86064	-38.9216	-135.368	1.98809	-65.0918	-138.565	-7.53794	-86.5638	-143.624	-3.67498	-18.916	-153.532	-8.20375	-42.834	-162.161	-17.5181	-62.8231	-126.432	17.6967	10.9889	-127.12	19.4781	41.7328	-92.6364	23.3458	21.6129	
4	0.0333333	-63.9368	0.631429	32.0076	-43.8051	-7.07787	7.54696	-26.5698	-15.4718	-13.4494	-17.3743	-24.7957	-32.6737	-79.9167	16.111	-43.0354	-75.9382	14.3646	-68.4721	-70.9428	8.77144	-93.8153	-107.526	16.9436	-51.2026	-109.109	10.0186	-79.5654	-110.907	0.24178	-104.792	-132.04	6.40818	-37.6939	-134.077	2.38157	-66.9874	-140.328	-10.2825	-90.3342	-149.157	-4.32022	-20.7999	-151.826	-7.97861	-41.9357	-161.854	-17.3117	-63.5094	-127.146	19.2229	11.7332	-121.569	20.5542	39.759	-93.1564	22.2208	21.6308	
5	0.0416667	-63.309	1.30136	27.4373	-44.9405	-6.61005	7.58097	-29.7753	-15.113	-18.435	-19.3311	-25.3939	-36.152	-79.2523	17.5414	-42.0464	-78.7889	14.6263	-72.9022	-71.9551	9.26191	-94.239	-111.474	16.8961	-49.8859	-109.916	12.5181	-77.2195	-114.021	-1.20901	-105.378	-132.377	7.59852	-38.0957	-136.532	2.10202	-66.6075	-140.644	-9.61405	-87.721	-146.866	-1.81087	-21.2158	-151.867	-6.43035	-40.7056	-160.804	-18.438	-62.8093	-123.411	19.8837	14.9476	-123.595	19.4096	42.1583	-89.7482	23.1974	22.8765	
6	0.05	-61.2161	3.12638	26.9088	-43.82	-6.76033	4.80195	-34.3048	-17.4412	-16.9183	-28.1367	-26.6395	-38.7572	-83.8425	21.5625	-47.2984	-76.4311	18.7748	-69.4393	-75.6452	10.5356	-95.2603	-112.407	20.0884	-50.5916	-109.332	14.9832	-75.8072	-111.174	-3.91692	-106.993	-127.034	11.6263	-37.1582	-133.793	4.449	-65.2075	-134.3	-12.9633	-91.8597	-148.86	0.667239	-21.8883	-154.12	-5.58552	-46.9723	-158.522	-17.0533	-66.1118	-122.326	20.4216	15.1464	-125.125	20.7455	44.1654	-93.2516	26.7331	25.0298	
7	0.0583333	-62.2339	4.71298	31.1097	-47.5846	-7.13859	5.29244	-37.3114	-16.717	-24.9559	-35.2774	-27.8258	-44.5895	-83.8488	27.4786	-45.2179	-77.3658	21.6418	-74.0422	-78.3544	11.6162	-94.9214	-110.262	24.6688	-49.9174	-109.274	15.7699	-76.4956	-103.984	-13.6073	-102.633	-126.271	16.532	-38.2511	-133.673	4.64648	-65.8438	-130.445	-18.0301	-83.7593	-148.291	6.61964	-24.2765	-151.191	0.457923	-45.015	-151.713	-17.4882	-68.8843	-128.273	23.2193	16.6892	-125.854	22.7371	43.2532	-91.2168	31.3577	25.4297	
8	0.0666667	-63.8597	4.68012	28.1725	-52.3955	-7.46892	0.678278	-48.0381	-17.1041	-25.5922	-50.4552	-27.4855	-50.7325	-84.4872	31.0892	-41.5119	-79.8462	23.7493	-73.858	-73.7008	6.8463	-95.7979	-109.014	28.8431	-45.2903	-109.618	13.0647	-77.5425	-101.087	-19.7034	-88.3432	-127.338	19.4804	-39.0636	-129.866	4.61788	-65.1207	-118.123	-25.8121	-73.7379	-146.581	8.39314	-19.4393	-148.561	4.30699	-45.0633	-145.475	-16.5027	-66.642	-126.17	24.6597	16.0461	-126.773	21.3888	47.3679	-93.4323	30.406	28.2329	
9	0.075	-66.3085	5.07809	29.9018	-51.0788	-8.11295	-1.2834	-48.3275	-17.7554	-27.7348	-61.3745	-27.7729	-48.1727	-83.7716	33.9336	-41.6304	-82.6569	27.2729	-68.7749	-76.8905	7.46651	-91.3366	-107.05	31.4406	-46.9201	-102.988	13.7632	-74.6187	-94.5827	-22.7461	-70.5181	-123.148	22.1274	-40.0169	-127.447	2.99715	-63.0314	-112.191	-27.6788	-57.343	-140.479	10.7777	-18.8323	-145.568	4.28978	-48.1683	-136.225	-16.2106	-62.9508	-128.979	25.1271	17.7404	-127.31	22.541	44.2427	-92.942	32.2278	30.5285	
10	0.0833333	-64.6181	6.55029	27.3853	-55.1145	-7.51699	-2.44877	-57.5095	-17.8424	-31.8642	-73.9576	-27.2705	-52.4441	-86.2468	34.7778	-41.7864	-79.6654	27.4665	-68.8584	-75.8323	3.57904	-89.2367	-107.033	30.3977	-48.4831	-100.319	9.69921	-70.0726	-93.6464	-23.6885	-51.748	-127.391	18.5729	-38.3628	-122.274	-1.83589	-60.1365	-104.77	-27.799	-41.7678	-139.101	11.7082	-19.5275	-142.035	6.49458	-48.8765	-130.829	-15.7368	-61.0698	-128.62	25.094	18.4677	-126.429	20.9119	43.4126	-95.4525	33.4371	30.6787	
11	0.0916667	-68.1683	4.33946	29.6951	-54.3173	-8.57761	-4.15653	-61.3413	-17.97	-33.7434	-84.255	-25.3919	-47.2472	-84.9105	36.5025	-41.8846	-79.1433	26.9245	-70.1446	-75.09	7.59444	-86.4807	-105.72	28.308	-45.7929	-98.4423	1.69691	-66.1167	-89.1895	-22.5945	-34.1126	-124.533	17.0789	-37.2198	-115.378	-4.91129	-57.2399	-104.273	-26.4244	-33.0365	-137.394	15.1474	-24.2883	-139.385	10.3847	-47.049	-130.486	-13.7978	-65.534	-129.276	26.6718	16.9638	-129.169	19.6099	45.6675	-92.8095	32.6455	29.1283	
12	0.1	-69.2372	6.48447	25.1889	-61.1625	-7.98782	-4.71964	-65.8345	-18.6478	-35.5302	-90.7688	-25.0064	-49.2264	-84.1811	39.4091	-42.3033	-77.4678	32.1402	-68.9792	-74.1718	14.8537	-87.107	-102.625	27.0319	-47.526	-94.9821	-2.52719	-60.6976	-89.3436	-19.0967	-28.1326	-124.507	16.0678	-39.4443	-110.032	-9.67369	-53.2775	-101.641	-23.0519	-24.4333	-140.562	13.986	-21.1585	-141.545	14.559	-45.9819	-133.838	0.463423	-72.5145	-124.746	27.0817	15.2076	-126.199	18.6852	47.5647	-94.7026	31.4392	31.8802	
13	0.108333	-66.3697	4.30612	27.3171	-58.488	-7.80263	-9.49066	-69.7928	-15.536	-38.8508	-97.4641	-21.2654	-48.0158	-86.6495	43.2826	-37.3358	-80.3462	41.0163	-65.2392	-75.8134	24.7882	-91.6773	-103.288	29.2203	-48.4437	-93.0355	0.0168095	-58.308	-87.7687	-13.7371	-24.2147	-120.558	19.7449	-40.8279	-112.951	-5.35306	-51.9591	-101.851	-19.2561	-23.0658	-137.375	22.5944	-24.5535	-142.072	21.7209	-49.2714	-140.16	19.3925	-71.7368	-124.481	30.0709	16.1418	-125.39	22.9434	46.3392	-93.3641	34.3721	35.3031	
14	0.116667	-64.2142	7.59905	25.2524	-58.4032	-5.80466	-8.47817	-70.7094	-13.059	-38.8641	-99.0091	-14.9121	-46.5947	-85.6883	50.2324	-39.1689	-81.5962	48.9904	-65.0552	-78.0264	39.4998	-91.2482	-101.947	35.7061	-44.3673	-94.1251	6.45353	-58.1938	-91.6265	-7.73968	-18.5108	-120.166	26.0778	-39.0232	-113.773	-1.86762	-50.0648	-103.269	-14.3778	-23.3318	-142.032	28.875	-24.4428	-144.778	30.5523	-42.0768	-148.339	35.0804	-69.3157	-126.919	35.4103	20.5168	-122.432	25.4391	45.7919	-92.5245	37.6041	32.9638	
15	0.125	-65.6088	9.9431	22.344	-63.388	-3.35265	-12.3919	-77.8905	-9.83763	-43.1732	-102.696	-14.3201	-48.1335	-84.2435	54.9561	-39.0542	-80.0157	55.4761	-66.9184	-84.0109	48.3725	-95.8796	-106.974	39.0697	-44.7561	-97.0203	6.38524	-57.6353	-93.4782	-6.34331	-22.3072	-123.848	30.023	-37.7645	-116.76	2.36363	-49.4366	-108.149	-12.4802	-20.6044	-144.854	34.6675	-22.6859	-146.09	37.2906	-42.5207	-150.553	42.0881	-66.2838	-123.932	42.1509	16.8936	-121.913	32.249	46.4052	-89.6256	44.8237	29.3057	
16	0.133333	-67.9818	11.4402	21.613	-67.4444	-6.75252	-15.3151	-81.4524	-17.5351	-38.6255	-111.192	-20.0111	-45.4789	-91.6771	49.0358	-42.5547	-91.9559	46.4063	-74.5001	-91.8863	39.4527	-98.4486	-114.304	29.6601	-46.3234	-107.388	-2.95493	-56.8647	-99.3663	-11.5276	-20.2834	-125.802	19.9844	-40.1108	-122.512	-11.1105	-44.4286	-109.564	-18.2022	-11.8904	-148.682	28.7683	-25.108	-153.32	28.8161	-43.9981	-157.677	26.6803	-67.5463	-128.424	40.7241	17.4661	-124.459	37.142	42.2379	-95.5447	45.791	23.5713	
17	0.141667	-73.0643	10.9088	19.415	-68.5125	-13.8682	-5.27529	-77.8373	-33.2351	-29.0317	-105.454	-44.9222	-35.95	-100.322	26.8025	-49.1836	-102.47	15.7413	-79.0609	-100.238	4.18938	-100.1	-118.729	-0.648544	-51.3174	-104.167	-28.2149	-50.436	-99.2997	-22.6797	-8.99475	-132.61	-10.4763	-38.5726	-120.467	-37.6246	-35.7555	-103.592	-31.2215	-5.04121	-151.61	0.392109	-23.2501	-157.662	-7.31373	-47.7135	-157.537	-16.602	-65.7286	-137.512	25.7065	8.86516	-136.737	26.6299	36.9768	-108.779	37.1299	18.0219	
18	0.15	-82.4383	15.8733	17.1842	-66.934	-8.25451	0.366063	-63.4077	-37.4199	-21.4093	-82.9344	-56.1262	-17.9041	-108.163	-2.29069	-49.1767	-101.539	-15.5537	-75.3475	-95.1968	-33.2427	-93.5506	-111.892	-29.6968	-44.0872	-84.8938	-50.454	-33.5464	-85.4848	-33.5646	-2.48629	-119.61	-42.7886	-28.5389	-94.496	-60.5504	-16.987	-89.9255	-37.5834	10.516	-140.446	-41.5168	-16.6399	-135.689	-52.5893	-39.6875	-129.02	-63.8265	-55.0906	-143.201	-4.67998	9.52476	-147.227	4.39219	37.3661	-124.441	19.0807	14.0499	
19	0.158333	-98.3234	20.9516	14.6932	-66.6312	10.4321	-2.52983	-50.2285	-14.8912	-13.3616	-50.7498	-43.78	-8.16506	-103.39	-23.6261	-50.8376	-90.256	-30.2554	-69.2035	-71.8231	-43.1945	-86.3714	-88.0796	-43.8674	-38.146	-57.6884	-37.7712	-28.6634	-70.5805	-21.4076	2.95949	-87.155	-56.5734	-19.1001	-61.7666	-51.0159	-8.97063	-71.7454	-26.2156	16.0007	-108.749	-64.77	-4.14849	-97.5873	-75.9413	-21.6517	-82.6349	-86.1346	-37.31	-135.991	-32.7589	10.1912	-142.097	-17.9113	39.73	-133.801	5.37741	9.0454	
20	0.166667	-111.522	21.8787	14.2637	-75.7756	25.0083	-5.97676	-48.1203	9.5324	-14.261	-36.5344	-15.7458	-3.87336	-94.9822	-23.1419	-46.125	-74.4177	-28.4603	-69.576	-53.4815	-30.6485	-86.3275	-71.1145	-35.7522	-31.6388	-45.5261	-14.5389	-27.0812	-67.4628	-2.14324	4.68486	-66.0137	-43.7841	-13.8258	-42.3671	-24.1308	-1.81146	-62.4443	-6.78389	15.5597	-76.706	-59.9871	0.892016	-60.7929	-66.735	-13.5181	-45.9004	-71.0137	-29.7624	-116.025	-42.0965	14.9078	-129.433	-32.3262	38.0396	-131.49	-14.1768	7.70295	
